<?xml version="1.0" encoding="utf-8"?>
<!-- Generator: Adobe Illustrator 17.0.0, SVG Export Plug-In . SVG Version: 6.00 Build 0)  -->
<!DOCTYPE svg PUBLIC "-//W3C//DTD SVG 1.1//EN" "http://www.w3.org/Graphics/SVG/1.1/DTD/svg11.dtd">
<svg version="1.1" id="Layer_1" xmlns="http://www.w3.org/2000/svg" xmlns:xlink="http://www.w3.org/1999/xlink" x="0px" y="0px"
	 width="162.111px" height="117px" viewBox="0 0 162.111 117" enable-background="new 0 0 162.111 117" xml:space="preserve">
<g>
	<polygon fill="#FFFFFF" points="36.675,97.304 31.189,97.304 35.242,70.74 44.971,70.74 46.529,84.334 51.954,70.74 62.056,70.74 
		58.002,97.304 50.966,97.304 54.261,77.201 46.28,97.304 41.977,97.304 39.586,76.3 	"/>
	<polygon fill="#808081" points="70.335,97.304 63.34,97.304 67.403,70.74 74.397,70.74 	"/>
	<polygon fill="#808081" points="84.153,90.881 87.233,70.74 79.813,70.74 75.749,97.304 92.05,97.304 92.986,90.881 	"/>
	<polygon fill="#808081" points="104.482,90.881 107.561,70.74 100.141,70.74 96.078,97.304 112.378,97.304 113.313,90.881 	"/>
	<polygon fill="#808081" points="137.137,76.726 137.76,70.74 127.953,70.74 122.107,70.74 120.533,70.74 116.47,97.304 
		134.174,97.304 135.11,90.881 124.873,90.881 125.568,86.329 133.955,86.329 134.766,80.904 126.399,80.904 127.037,76.726 	"/>
	<polygon fill="#FFFFFF" points="162.111,70.74 155.408,70.74 150.492,77.903 153.056,83.689 	"/>
	<polygon fill="#808081" points="153.056,83.689 150.492,77.903 147.316,70.74 139.927,70.74 145.206,83.013 135.936,97.304 
		142.493,97.304 147.795,89.03 151.355,97.304 159.093,97.304 	"/>
	<circle fill="#FFFFFF" cx="151.699" cy="66.775" r="4.147"/>
	<path fill="#FFFFFF" d="M159.045,48.23c-3.824-3.898-15.318-5.118-34.839,11.75c8.065-11.91,13.668-24.762,7.389-31.392
		c-10.854-11.46-49.629-8.494-86.894,22.515C26.428,66.308,10.202,86.889,3.506,98c6.838-7.791,14.826-15.774,23.778-23.596
		c39.707-34.702,81.654-47.117,93.119-35.039c6.407,6.75,3.711,18.681-4.49,30.359c14.865-15.323,35.039-22.229,39.548-17.475
		c1.713,1.807,1.056,6.27-0.81,10.246C155.733,61.621,163.259,52.526,159.045,48.23z"/>
</g>
</svg>
